<?xml version="1.0" encoding="utf-8"?>
<!-- Generator: Adobe Illustrator 19.0.0, SVG Export Plug-In . SVG Version: 6.00 Build 0)  -->
<svg version="1.1" id="Layer_1" xmlns="http://www.w3.org/2000/svg" xmlns:xlink="http://www.w3.org/1999/xlink" x="0px" y="0px"
	 viewBox="0 0 45.667 45.667" style="enable-background:new 0 0 45.667 45.667;" xml:space="preserve">
<style type="text/css">
	.st0{fill:#FFFFFF;}
</style>
<g id="XMLID_93_">
	<path id="XMLID_94_" class="st0" d="M22.833,0.856c-12.137,0-21.977,9.84-21.977,21.977c0,12.138,9.84,21.977,21.977,21.977
		c12.137,0,21.978-9.839,21.978-21.977C44.811,10.697,34.97,0.856,22.833,0.856z M27.686,19.112L27.433,22.4h-3.37v11.422h-4.259
		V22.4h-2.272v-3.288h2.272v-2.208c0-0.974,0.025-2.475,0.732-3.405c0.745-0.985,1.768-1.654,3.527-1.654
		c2.866,0,4.073,0.409,4.073,0.409l-0.568,3.366c0,0-0.947-0.274-1.83-0.274c-0.884,0-1.675,0.317-1.675,1.2v2.567H27.686z"/>
</g>
</svg>
