<?xml version="1.0" encoding="utf-8"?>
<!-- Generator: Adobe Illustrator 19.0.0, SVG Export Plug-In . SVG Version: 6.00 Build 0)  -->
<svg version="1.1" id="Layer_1" xmlns="http://www.w3.org/2000/svg" xmlns:xlink="http://www.w3.org/1999/xlink" x="0px" y="0px"
	 viewBox="-274 398.223 45.667 45.667" style="enable-background:new -274 398.223 45.667 45.667;" xml:space="preserve">
<style type="text/css">
	.st0{fill:#FFFFFF;}
</style>
<g>
	<polygon class="st0" points="-254.146,416.804 -254.146,425.254 -246.954,421.029 	"/>
	<path class="st0" d="M-251.219,442.987c12.133,0,21.969-9.836,21.969-21.969c0-12.132-9.836-21.967-21.969-21.967
		c-12.133,0-21.968,9.836-21.968,21.967C-273.188,433.151-263.352,442.987-251.219,442.987z M-262.203,417.091
		c0-3.786,3.784-3.786,3.784-3.786h14.397c3.787,0,3.787,3.786,3.787,3.786v7.855c0,3.785-3.787,3.785-3.787,3.785h-14.397
		c-3.784,0-3.784-3.785-3.784-3.785V417.091z"/>
</g>
</svg>
