<?xml version="1.0" encoding="utf-8"?>
<!-- Generator: Adobe Illustrator 19.0.0, SVG Export Plug-In . SVG Version: 6.00 Build 0)  -->
<svg version="1.1" id="Layer_1" xmlns="http://www.w3.org/2000/svg" xmlns:xlink="http://www.w3.org/1999/xlink" x="0px" y="0px"
	 viewBox="-274 398.223 45.667 45.667" style="enable-background:new -274 398.223 45.667 45.667;" xml:space="preserve">
<style type="text/css">
	.st0{fill:#FFFFFF;}
</style>
<g>
	<path class="st0" d="M-257.955,429.864h13.477c1.162,0,2.105-0.943,2.105-2.105v-8.994h-3.28c0.283,0.697,0.443,1.457,0.443,2.255
		c0,3.312-2.694,6.007-6.007,6.007c-3.313,0-6.007-2.696-6.007-6.007c0-0.797,0.159-1.558,0.443-2.255h-3.28v8.994
		C-260.06,428.92-259.116,429.864-257.955,429.864z"/>
	<path class="st0" d="M-251.219,442.989c12.134,0,21.969-9.837,21.969-21.969c0-12.132-9.835-21.968-21.969-21.968
		c-12.135,0-21.969,9.836-21.969,21.968C-273.188,433.152-263.353,442.989-251.219,442.989z M-262.201,418.765v-4.484
		c0-2.341,1.905-4.245,4.246-4.245h13.477c2.341,0,4.246,1.904,4.246,4.245v4.484v8.994c0,2.341-1.905,4.245-4.246,4.245h-13.477
		c-2.341,0-4.246-1.904-4.246-4.245V418.765z"/>
	<path class="st0" d="M-251.216,424.886c2.132,0,3.867-1.734,3.867-3.866c0-0.842-0.274-1.619-0.733-2.255
		c-0.703-0.974-1.844-1.612-3.135-1.612c-1.29,0-2.432,0.638-3.135,1.612c-0.458,0.636-0.732,1.413-0.732,2.255
		C-255.082,423.152-253.348,424.886-251.216,424.886z"/>
	<polygon class="st0" points="-242.774,416.29 -242.774,413.05 -242.774,412.566 -243.259,412.568 -246.499,412.578 
		-246.486,416.301 	"/>
</g>
</svg>
