<?xml version="1.0" encoding="utf-8"?>
<!-- Generator: Adobe Illustrator 19.0.0, SVG Export Plug-In . SVG Version: 6.00 Build 0)  -->
<svg version="1.1" id="Layer_1" xmlns="http://www.w3.org/2000/svg" xmlns:xlink="http://www.w3.org/1999/xlink" x="0px" y="0px"
	 viewBox="0 0 45.667 45.667" style="enable-background:new 0 0 45.667 45.667;" xml:space="preserve">
<style type="text/css">
	.st0{fill:#FFFFFF;}
</style>
<g id="XMLID_94_">
	<path id="XMLID_95_" class="st0" d="M22.796,0.833c-12.129,0-21.962,9.833-21.962,21.961c0,12.13,9.833,21.962,21.962,21.962
		c12.129,0,21.962-9.832,21.962-21.962C44.757,10.667,34.925,0.833,22.796,0.833z M31.562,19.378
		c0.008,0.192,0.012,0.388,0.012,0.584c0,5.965-4.538,12.841-12.841,12.841c-2.548,0-4.921-0.748-6.918-2.027
		c0.353,0.042,0.713,0.062,1.077,0.062c2.114,0,4.06-0.721,5.605-1.933c-1.975-0.035-3.642-1.34-4.215-3.133
		c0.274,0.053,0.558,0.08,0.849,0.08c0.412,0,0.811-0.053,1.19-0.159c-2.066-0.414-3.622-2.238-3.622-4.425v-0.055
		c0.609,0.336,1.306,0.541,2.045,0.564c-1.211-0.81-2.008-2.192-2.008-3.756c0-0.827,0.223-1.602,0.611-2.271
		c2.228,2.733,5.552,4.528,9.303,4.716c-0.078-0.33-0.116-0.673-0.116-1.028c0-2.492,2.021-4.513,4.512-4.513
		c1.299,0,2.473,0.548,3.294,1.425c1.03-0.202,1.994-0.577,2.867-1.094c-0.336,1.054-1.052,1.938-1.984,2.496
		c0.912-0.109,1.783-0.352,2.592-0.71C33.21,17.946,32.444,18.741,31.562,19.378z"/>
</g>
</svg>
