<?xml version="1.0" encoding="utf-8"?>
<!-- Generator: Adobe Illustrator 19.0.0, SVG Export Plug-In . SVG Version: 6.00 Build 0)  -->
<svg version="1.1" id="Layer_1" xmlns="http://www.w3.org/2000/svg" xmlns:xlink="http://www.w3.org/1999/xlink" x="0px" y="0px"
	 viewBox="0 0 45.667 45.667" style="enable-background:new 0 0 45.667 45.667;" xml:space="preserve">
<style type="text/css">
	.st0{fill:#FFFFFF;}
</style>
<g id="Globe_1">
	<g id="XMLID_231_">
		<path id="XMLID_232_" class="st0" d="M22.833,0.833c-12.15,0-22,9.85-22,22s9.85,22,22,22c12.15,0,22-9.85,22-22
			S34.984,0.833,22.833,0.833z M16.897,3.73c-0.431,0.451-0.841,0.954-1.236,1.496c-0.037,0.051-0.074,0.101-0.111,0.152
			c-0.793,1.113-1.508,2.397-2.127,3.832c-0.033,0.077-0.063,0.158-0.097,0.237c-0.036,0.086-0.065,0.181-0.101,0.269
			c-1.236-0.603-2.339-1.324-3.31-2.131C11.938,5.867,14.299,4.536,16.897,3.73z M8.471,8.943c1.183,1.012,2.539,1.908,4.064,2.639
			c-0.027,0.082-0.055,0.163-0.081,0.246c-0.481,1.521-0.866,3.15-1.138,4.873c-0.035,0.217-0.061,0.438-0.092,0.658
			c-0.092,0.655-0.167,1.32-0.226,1.998c-0.022,0.252-0.045,0.502-0.063,0.758c-0.038,0.564-0.046,1.143-0.064,1.719H2.874
			C3.122,16.829,5.212,12.318,8.471,8.943z M2.874,23.833h7.996c0.018,0.575,0.026,1.155,0.064,1.719
			c0.018,0.256,0.041,0.506,0.063,0.758c0.059,0.678,0.134,1.344,0.226,1.998c0.031,0.221,0.058,0.441,0.092,0.659
			c0.273,1.722,0.657,3.352,1.138,4.872c0.026,0.083,0.054,0.165,0.081,0.247c-1.525,0.729-2.882,1.626-4.064,2.639
			C5.212,33.349,3.122,28.837,2.874,23.833z M9.915,38.081c0.971-0.806,2.074-1.528,3.31-2.131c0.036,0.088,0.065,0.184,0.101,0.269
			c0.033,0.078,0.063,0.159,0.097,0.236c0.619,1.436,1.335,2.719,2.127,3.832c0.037,0.052,0.074,0.102,0.111,0.152
			c0.395,0.542,0.806,1.046,1.237,1.496C14.299,41.13,11.938,39.799,9.915,38.081z M21.833,42.733
			c-2.777-0.552-5.214-3.382-6.849-7.536c2.066-0.766,4.389-1.219,6.849-1.32V42.733z M21.833,31.878
			c-2.684,0.104-5.224,0.598-7.496,1.441c-0.859-2.785-1.394-6.015-1.48-9.486h8.976V31.878z M21.833,21.833h-8.976
			c0.086-3.472,0.621-6.701,1.48-9.486c2.272,0.844,4.813,1.338,7.496,1.442V21.833z M21.833,11.79
			c-2.46-0.102-4.782-0.555-6.849-1.32c1.634-4.154,4.071-6.984,6.849-7.536V11.79z M42.792,21.833h-7.996
			c-0.017-0.575-0.026-1.154-0.064-1.719c-0.017-0.256-0.041-0.506-0.063-0.758c-0.059-0.678-0.134-1.343-0.225-1.998
			c-0.031-0.22-0.058-0.441-0.092-0.658c-0.272-1.723-0.658-3.353-1.138-4.873c-0.026-0.083-0.054-0.164-0.082-0.246
			c1.525-0.73,2.882-1.627,4.064-2.639C40.455,12.318,42.545,16.829,42.792,21.833z M35.752,7.585
			c-0.971,0.807-2.074,1.528-3.31,2.131c-0.035-0.088-0.065-0.183-0.101-0.269c-0.033-0.079-0.063-0.16-0.097-0.237
			c-0.619-1.436-1.334-2.719-2.127-3.832c-0.037-0.052-0.074-0.102-0.111-0.152c-0.395-0.542-0.806-1.045-1.236-1.496
			C31.368,4.536,33.729,5.867,35.752,7.585z M23.833,2.934c2.777,0.552,5.214,3.382,6.849,7.536
			c-2.066,0.766-4.389,1.219-6.849,1.32V2.934z M23.833,13.789c2.684-0.104,5.224-0.599,7.497-1.442
			c0.859,2.785,1.393,6.015,1.48,9.486h-8.977V13.789z M23.833,23.833h8.977c-0.086,3.472-0.621,6.701-1.48,9.486
			c-2.273-0.844-4.812-1.338-7.497-1.441V23.833z M23.833,42.733v-8.856c2.459,0.102,4.783,0.555,6.849,1.32
			C29.048,39.351,26.611,42.181,23.833,42.733z M28.77,41.937c0.431-0.45,0.841-0.954,1.236-1.496
			c0.037-0.051,0.074-0.101,0.111-0.152c0.793-1.113,1.508-2.396,2.127-3.832c0.034-0.077,0.064-0.158,0.097-0.236
			c0.036-0.086,0.065-0.182,0.101-0.269c1.236,0.602,2.339,1.325,3.31,2.131C33.729,39.799,31.368,41.13,28.77,41.937z
			 M37.196,36.725c-1.183-1.013-2.539-1.909-4.064-2.639c0.028-0.082,0.056-0.164,0.082-0.247c0.481-1.52,0.866-3.15,1.138-4.872
			c0.034-0.218,0.062-0.438,0.092-0.659c0.092-0.654,0.167-1.32,0.225-1.998c0.022-0.252,0.046-0.502,0.063-0.758
			c0.038-0.564,0.047-1.144,0.064-1.719h7.996C42.545,28.837,40.454,33.349,37.196,36.725z"/>
	</g>
</g>
</svg>
